<svg width="22" height="18" viewBox="0 0 22 18" fill="none" xmlns="http://www.w3.org/2000/svg">
<path id="Vector" fill-rule="evenodd" clip-rule="evenodd" d="M1.94364 7.81839C7.58077 5.4193 11.3397 3.83767 13.2206 3.0735C18.5907 0.891658 19.7065 0.512649 20.4338 0.500133C20.5938 0.497381 20.9514 0.536106 21.1831 0.719742C21.3787 0.874801 21.4326 1.08426 21.4583 1.23128C21.4841 1.37829 21.5162 1.71319 21.4907 1.97487C21.1997 4.96165 19.9405 12.2098 19.2999 15.555C19.0288 16.9705 18.4951 17.4451 17.9784 17.4916C16.8554 17.5925 16.0027 16.7667 14.9151 16.0702C13.2132 14.9805 12.2517 14.3021 10.5997 13.2387C8.69056 12.0097 9.92819 11.3343 11.0162 10.2304C11.301 9.94147 16.2486 5.54547 16.3444 5.14668C16.3564 5.09681 16.3675 4.91089 16.2544 4.81273C16.1414 4.71456 15.9745 4.74813 15.8541 4.77483C15.6834 4.81267 12.9646 6.56807 7.69761 10.041C6.92588 10.5587 6.22687 10.8109 5.60058 10.7977C4.91015 10.7831 3.58204 10.4163 2.59472 10.1028C1.38374 9.7183 0.421278 9.51501 0.505087 8.86197C0.54874 8.52183 1.02826 8.17397 1.94364 7.81839Z" fill="#FCFCFC"/>
</svg>
